0
SECTION
2
HEADER
9
$ACADVER
1
AC1006
9
$INSUNITS
70
6
0
ENDSEC
0
SECTION
2
ENTITIES
0
POLYLINE
8
0
62
255
66
1
10
0
20
0
30
0
70
8
0
VERTEX
8
0
62
255
10
8.2056828
20
62.327161
30
-1.5462187
70
32
0
SEQEND
8
0
0
POLYLINE
8
0
62
255
66
1
10
0
20
0
30
0
70
8
0
VERTEX
8
0
62
255
10
7.3780878
20
62.430538
30
-1.0359496
70
32
0
SEQEND
8
0
0
POLYLINE
8
0
62
255
66
1
10
0
20
0
30
0
70
8
0
VERTEX
8
0
62
255
10
6.594388
20
62.518176
30
-0.56344107
70
32
0
SEQEND
8
0
0
POLYLINE
8
0
62
255
66
1
10
0
20
0
30
0
70
8
0
VERTEX
8
0
62
255
10
5.6935548
20
62.606642
30
-0.043805539
70
32
0
SEQEND
8
0
0
POLYLINE
8
0
62
255
66
1
10
0
20
0
30
0
70
8
0
VERTEX
8
0
62
255
10
4.521794
20
62.702166
30
0.60627836
70
32
0
SEQEND
8
0
0
POLYLINE
8
0
62
255
66
1
10
0
20
0
30
0
70
8
0
VERTEX
8
0
62
255
10
3.2640363
20
62.780206
30
1.276032
70
32
0
SEQEND
8
0
0
POLYLINE
8
0
62
255
66
1
10
0
20
0
30
0
70
8
0
VERTEX
8
0
62
255
10
2.0549347
20
62.831405
30
1.8869502
70
32
0
SEQEND
8
0
0
POLYLINE
8
0
62
255
66
1
10
0
20
0
30
0
70
8
0
VERTEX
8
0
62
255
10
0.85472066
20
62.859189
30
2.4657296
70
32
0
SEQEND
8
0
0
POLYLINE
8
0
62
255
66
1
10
0
20
0
30
0
70
8
0
VERTEX
8
0
62
255
10
-0.37006635
20
62.863911
30
3.0321801
70
32
0
SEQEND
8
0
0
POLYLINE
8
0
62
255
66
1
10
0
20
0
30
0
70
8
0
VERTEX
8
0
62
255
10
-1.6120414
20
62.844328
30
3.5768166
70
32
0
SEQEND
8
0
0
POLYLINE
8
0
62
255
66
1
10
0
20
0
30
0
70
8
0
VERTEX
8
0
62
255
10
-2.8582853
20
62.799987
30
4.0921444
70
32
0
SEQEND
8
0
0
POLYLINE
8
0
62
255
66
1
10
0
20
0
30
0
70
8
0
VERTEX
8
0
62
255
10
-4.0946304
20
62.731509
30
4.5771568
70
32
0
SEQEND
8
0
0
POLYLINE
8
0
62
255
66
1
10
0
20
0
30
0
70
8
0
VERTEX
8
0
62
255
10
-5.3453256
20
62.637335
30
5.0340269
70
32
0
SEQEND
8
0
0
POLYLINE
8
0
62
255
66
1
10
0
20
0
30
0
70
8
0
VERTEX
8
0
62
255
10
-6.6722222
20
62.509917
30
5.4665602
70
32
0
SEQEND
8
0
0
POLYLINE
8
0
62
255
66
1
10
0
20
0
30
0
70
8
0
VERTEX
8
0
62
255
10
-7.9776194
20
62.356762
30
5.8442167
70
32
0
SEQEND
8
0
0
POLYLINE
8
0
62
255
66
1
10
0
20
0
30
0
70
8
0
VERTEX
8
0
62
255
10
-9.0258593
20
62.213681
30
6.1078025
70
32
0
SEQEND
8
0
0
POLYLINE
8
0
62
255
66
1
10
0
20
0
30
0
70
8
0
VERTEX
8
0
62
255
10
-9.9062539
20
62.079581
30
6.2859766
70
32
0
SEQEND
8
0
0
POLYLINE
8
0
62
255
66
1
10
0
20
0
30
0
70
8
0
VERTEX
8
0
62
255
10
-10.838653
20
61.923597
30
6.442638
70
32
0
SEQEND
8
0
0
POLYLINE
8
0
62
255
66
1
10
0
20
0
30
0
70
8
0
VERTEX
8
0
62
255
10
-11.764482
20
61.754394
30
6.56122
70
32
0
SEQEND
8
0
0
POLYLINE
8
0
62
255
66
1
10
0
20
0
30
0
70
8
0
VERTEX
8
0
62
255
10
-12.736117
20
61.561348
30
6.6294939
70
32
0
SEQEND
8
0
0
POLYLINE
8
0
62
255
66
1
10
0
20
0
30
0
70
8
0
VERTEX
8
0
62
255
10
-13.645811
20
61.366115
30
6.6468143
70
32
0
SEQEND
8
0
0
POLYLINE
8
0
62
255
66
1
10
0
20
0
30
0
70
8
0
VERTEX
8
0
62
255
10
-14.307649
20
61.215189
30
6.6201822
70
32
0
SEQEND
8
0
0
POLYLINE
8
0
62
255
66
1
10
0
20
0
30
0
70
8
0
VERTEX
8
0
62
255
10
-14.989579
20
61.051787
30
6.5412832
70
32
0
SEQEND
8
0
0
POLYLINE
8
0
62
255
66
1
10
0
20
0
30
0
70
8
0
VERTEX
8
0
62
255
10
-15.659098
20
60.883503
30
6.3936489
70
32
0
SEQEND
8
0
0
POLYLINE
8
0
62
255
66
1
10
0
20
0
30
0
70
8
0
VERTEX
8
0
62
255
10
-16.164602
20
60.751246
30
6.1459568
70
32
0
SEQEND
8
0
0
POLYLINE
8
0
62
255
66
1
10
0
20
0
30
0
70
8
0
VERTEX
8
0
62
255
10
-16.465673
20
60.670337
30
5.58215
70
32
0
SEQEND
8
0
0
POLYLINE
8
0
62
255
66
1
10
0
20
0
30
0
70
8
0
VERTEX
8
0
62
255
10
-16.130708
20
60.760254
30
5.1520285
70
32
0
SEQEND
8
0
0
POLYLINE
8
0
62
255
66
1
10
0
20
0
30
0
70
8
0
VERTEX
8
0
62
255
10
-15.619173
20
60.893757
30
4.8380301
70
32
0
SEQEND
8
0
0
POLYLINE
8
0
62
255
66
1
10
0
20
0
30
0
70
8
0
VERTEX
8
0
62
255
10
-15.001964
20
61.048745
30
4.560052
70
32
0
SEQEND
8
0
0
POLYLINE
8
0
62
255
66
1
10
0
20
0
30
0
70
8
0
VERTEX
8
0
62
255
10
-14.408375
20
61.191559
30
4.3421203
70
32
0
SEQEND
8
0
0
POLYLINE
8
0
62
255
66
1
10
0
20
0
30
0
70
8
0
VERTEX
8
0
62
255
10
-13.589035
20
61.378713
30
4.0812189
70
32
0
SEQEND
8
0
0
POLYLINE
8
0
62
255
66
1
10
0
20
0
30
0
70
8
0
VERTEX
8
0
62
255
10
-12.65987
20
61.577073
30
3.8131452
70
32
0
SEQEND
8
0
0
POLYLINE
8
0
62
255
66
1
10
0
20
0
30
0
70
8
0
VERTEX
8
0
62
255
10
-11.765275
20
61.754243
30
3.5779718
70
32
0
SEQEND
8
0
0
POLYLINE
8
0
62
255
66
1
10
0
20
0
30
0
70
8
0
VERTEX
8
0
62
255
10
-10.8502
20
61.921574
30
3.3521096
70
32
0
SEQEND
8
0
0
POLYLINE
8
0
62
255
66
1
10
0
20
0
30
0
70
8
0
VERTEX
8
0
62
255
10
-9.9801939
20
62.067737
30
3.1391869
70
32
0
SEQEND
8
0
0
POLYLINE
8
0
62
255
66
1
10
0
20
0
30
0
70
8
0
VERTEX
8
0
62
255
10
-8.9623495
20
62.222862
30
2.8888589
70
32
0
SEQEND
8
0
0
POLYLINE
8
0
62
255
66
1
10
0
20
0
30
0
70
8
0
VERTEX
8
0
62
255
10
-7.6611469
20
62.396435
30
2.5686216
70
32
0
SEQEND
8
0
0
POLYLINE
8
0
62
255
66
1
10
0
20
0
30
0
70
8
0
VERTEX
8
0
62
255
10
-6.3029861
20
62.548226
30
2.2305374
70
32
0
SEQEND
8
0
0
POLYLINE
8
0
62
255
66
1
10
0
20
0
30
0
70
8
0
VERTEX
8
0
62
255
10
-5.0105283
20
62.665005
30
1.9043337
70
32
0
SEQEND
8
0
0
POLYLINE
8
0
62
255
66
1
10
0
20
0
30
0
70
8
0
VERTEX
8
0
62
255
10
-3.7276574
20
62.754385
30
1.5809685
70
32
0
SEQEND
8
0
0
POLYLINE
8
0
62
255
66
1
10
0
20
0
30
0
70
8
0
VERTEX
8
0
62
255
10
-2.4247408
20
62.818221
30
1.2540262
70
32
0
SEQEND
8
0
0
POLYLINE
8
0
62
255
66
1
10
0
20
0
30
0
70
8
0
VERTEX
8
0
62
255
10
-1.115006
20
62.855111
30
0.92294355
70
32
0
SEQEND
8
0
0
POLYLINE
8
0
62
255
66
1
10
0
20
0
30
0
70
8
0
VERTEX
8
0
62
255
10
0.18659917
20
62.864723
30
0.58905701
70
32
0
SEQEND
8
0
0
POLYLINE
8
0
62
255
66
1
10
0
20
0
30
0
70
8
0
VERTEX
8
0
62
255
10
1.4685444
20
62.847845
30
0.25438724
70
32
0
SEQEND
8
0
0
POLYLINE
8
0
62
255
66
1
10
0
20
0
30
0
70
8
0
VERTEX
8
0
62
255
10
2.7634161
20
62.804234
30
-0.090985804
70
32
0
SEQEND
8
0
0
POLYLINE
8
0
62
255
66
1
10
0
20
0
30
0
70
8
0
VERTEX
8
0
62
255
10
4.1217228
20
62.729735
30
-0.46162995
70
32
0
SEQEND
8
0
0
POLYLINE
8
0
62
255
66
1
10
0
20
0
30
0
70
8
0
VERTEX
8
0
62
255
10
5.4077312
20
62.631978
30
-0.81824118
70
32
0
SEQEND
8
0
0
POLYLINE
8
0
62
255
66
1
10
0
20
0
30
0
70
8
0
VERTEX
8
0
62
255
10
6.4063392
20
62.537725
30
-1.0981916
70
32
0
SEQEND
8
0
0
POLYLINE
8
0
62
255
66
1
10
0
20
0
30
0
70
8
0
VERTEX
8
0
62
255
10
7.2710344
20
62.443096
30
-1.3451609
70
32
0
SEQEND
8
0
0
POLYLINE
8
0
62
255
66
1
10
0
20
0
30
0
70
8
0
VERTEX
8
0
62
255
10
8.1868211
20
62.329641
30
-1.6109405
70
32
0
SEQEND
8
0
0
POLYLINE
8
0
62
255
66
1
10
0
20
0
30
0
70
8
0
VERTEX
8
0
62
255
10
8.2056828
20
62.327161
30
-1.5462187
70
32
0
SEQEND
8
0
0
ENDSEC
0
EOF
