0
SECTION
2
HEADER
9
$ACADVER
1
AC1006
9
$INSUNITS
70
6
0
ENDSEC
0
SECTION
2
ENTITIES
0
POLYLINE
8
0
62
255
66
1
10
0
20
0
30
0
70
8
0
VERTEX
8
0
62
255
10
5.7240239
20
102.71062
30
-0.79116685
70
32
0
SEQEND
8
0
0
POLYLINE
8
0
62
255
66
1
10
0
20
0
30
0
70
8
0
VERTEX
8
0
62
255
10
5.1918842
20
102.7389
30
-0.55847778
70
32
0
SEQEND
8
0
0
POLYLINE
8
0
62
255
66
1
10
0
20
0
30
0
70
8
0
VERTEX
8
0
62
255
10
4.6894201
20
102.76306
30
-0.34433347
70
32
0
SEQEND
8
0
0
POLYLINE
8
0
62
255
66
1
10
0
20
0
30
0
70
8
0
VERTEX
8
0
62
255
10
4.1143839
20
102.78769
30
-0.11191973
70
32
0
SEQEND
8
0
0
POLYLINE
8
0
62
255
66
1
10
0
20
0
30
0
70
8
0
VERTEX
8
0
62
255
10
3.3693428
20
102.81481
30
0.17531623
70
32
0
SEQEND
8
0
0
POLYLINE
8
0
62
255
66
1
10
0
20
0
30
0
70
8
0
VERTEX
8
0
62
255
10
2.5727403
20
102.83782
30
0.46725623
70
32
0
SEQEND
8
0
0
POLYLINE
8
0
62
255
66
1
10
0
20
0
30
0
70
8
0
VERTEX
8
0
62
255
10
1.8102211
20
102.85407
30
0.72860668
70
32
0
SEQEND
8
0
0
POLYLINE
8
0
62
255
66
1
10
0
20
0
30
0
70
8
0
VERTEX
8
0
62
255
10
1.0559041
20
102.86458
30
0.97180956
70
32
0
SEQEND
8
0
0
POLYLINE
8
0
62
255
66
1
10
0
20
0
30
0
70
8
0
VERTEX
8
0
62
255
10
0.28824147
20
102.8696
30
1.2057736
70
32
0
SEQEND
8
0
0
POLYLINE
8
0
62
255
66
1
10
0
20
0
30
0
70
8
0
VERTEX
8
0
62
255
10
-0.48787252
20
102.86884
30
1.4254753
70
32
0
SEQEND
8
0
0
POLYLINE
8
0
62
255
66
1
10
0
20
0
30
0
70
8
0
VERTEX
8
0
62
255
10
-1.2644607
20
102.86223
30
1.6275116
70
32
0
SEQEND
8
0
0
POLYLINE
8
0
62
255
66
1
10
0
20
0
30
0
70
8
0
VERTEX
8
0
62
255
10
-2.0333296
20
102.8499
30
1.8124047
70
32
0
SEQEND
8
0
0
POLYLINE
8
0
62
255
66
1
10
0
20
0
30
0
70
8
0
VERTEX
8
0
62
255
10
-2.8092143
20
102.83164
30
1.9794162
70
32
0
SEQEND
8
0
0
POLYLINE
8
0
62
255
66
1
10
0
20
0
30
0
70
8
0
VERTEX
8
0
62
255
10
-3.6293337
20
102.80596
30
2.1256764
70
32
0
SEQEND
8
0
0
POLYLINE
8
0
62
255
66
1
10
0
20
0
30
0
70
8
0
VERTEX
8
0
62
255
10
-4.4337806
20
102.77441
30
2.2411266
70
32
0
SEQEND
8
0
0
POLYLINE
8
0
62
255
66
1
10
0
20
0
30
0
70
8
0
VERTEX
8
0
62
255
10
-5.0778188
20
102.7446
30
2.3102557
70
32
0
SEQEND
8
0
0
POLYLINE
8
0
62
255
66
1
10
0
20
0
30
0
70
8
0
VERTEX
8
0
62
255
10
-5.6162361
20
102.71658
30
2.3427008
70
32
0
SEQEND
8
0
0
POLYLINE
8
0
62
255
66
1
10
0
20
0
30
0
70
8
0
VERTEX
8
0
62
255
10
-6.1849813
20
102.6839
30
2.3580092
70
32
0
SEQEND
8
0
0
POLYLINE
8
0
62
255
66
1
10
0
20
0
30
0
70
8
0
VERTEX
8
0
62
255
10
-6.7479773
20
102.64844
30
2.351226
70
32
0
SEQEND
8
0
0
POLYLINE
8
0
62
255
66
1
10
0
20
0
30
0
70
8
0
VERTEX
8
0
62
255
10
-7.3357504
20
102.60811
30
2.3107777
70
32
0
SEQEND
8
0
0
POLYLINE
8
0
62
255
66
1
10
0
20
0
30
0
70
8
0
VERTEX
8
0
62
255
10
-7.883774
20
102.56746
30
2.2452161
70
32
0
SEQEND
8
0
0
POLYLINE
8
0
62
255
66
1
10
0
20
0
30
0
70
8
0
VERTEX
8
0
62
255
10
-8.280284
20
102.53621
30
2.1742483
70
32
0
SEQEND
8
0
0
POLYLINE
8
0
62
255
66
1
10
0
20
0
30
0
70
8
0
VERTEX
8
0
62
255
10
-8.6855813
20
102.50267
30
2.070665
70
32
0
SEQEND
8
0
0
POLYLINE
8
0
62
255
66
1
10
0
20
0
30
0
70
8
0
VERTEX
8
0
62
255
10
-9.0787771
20
102.46859
30
1.9274756
70
32
0
SEQEND
8
0
0
POLYLINE
8
0
62
255
66
1
10
0
20
0
30
0
70
8
0
VERTEX
8
0
62
255
10
-9.3652722
20
102.44281
30
1.7390074
70
32
0
SEQEND
8
0
0
POLYLINE
8
0
62
255
66
1
10
0
20
0
30
0
70
8
0
VERTEX
8
0
62
255
10
-9.5024376
20
102.43017
30
1.3814754
70
32
0
SEQEND
8
0
0
POLYLINE
8
0
62
255
66
1
10
0
20
0
30
0
70
8
0
VERTEX
8
0
62
255
10
-9.2640918
20
102.45201
30
1.156328
70
32
0
SEQEND
8
0
0
POLYLINE
8
0
62
255
66
1
10
0
20
0
30
0
70
8
0
VERTEX
8
0
62
255
10
-8.928396
20
102.48181
30
1.0143983
70
32
0
SEQEND
8
0
0
POLYLINE
8
0
62
255
66
1
10
0
20
0
30
0
70
8
0
VERTEX
8
0
62
255
10
-8.5322988
20
102.51554
30
0.90245896
70
32
0
SEQEND
8
0
0
POLYLINE
8
0
62
255
66
1
10
0
20
0
30
0
70
8
0
VERTEX
8
0
62
255
10
-8.1561258
20
102.54616
30
0.82378922
70
32
0
SEQEND
8
0
0
POLYLINE
8
0
62
255
66
1
10
0
20
0
30
0
70
8
0
VERTEX
8
0
62
255
10
-7.6412858
20
102.58581
30
0.73852825
70
32
0
SEQEND
8
0
0
POLYLINE
8
0
62
255
66
1
10
0
20
0
30
0
70
8
0
VERTEX
8
0
62
255
10
-7.0612214
20
102.62737
30
0.65797196
70
32
0
SEQEND
8
0
0
POLYLINE
8
0
62
255
66
1
10
0
20
0
30
0
70
8
0
VERTEX
8
0
62
255
10
-6.5060254
20
102.66406
30
0.5936923
70
32
0
SEQEND
8
0
0
POLYLINE
8
0
62
255
66
1
10
0
20
0
30
0
70
8
0
VERTEX
8
0
62
255
10
-5.9406458
20
102.69832
30
0.53638652
70
32
0
SEQEND
8
0
0
POLYLINE
8
0
62
255
66
1
10
0
20
0
30
0
70
8
0
VERTEX
8
0
62
255
10
-5.4044065
20
102.72794
30
0.48279071
70
32
0
SEQEND
8
0
0
POLYLINE
8
0
62
255
66
1
10
0
20
0
30
0
70
8
0
VERTEX
8
0
62
255
10
-4.778236
20
102.75897
30
0.41916223
70
32
0
SEQEND
8
0
0
POLYLINE
8
0
62
255
66
1
10
0
20
0
30
0
70
8
0
VERTEX
8
0
62
255
10
-3.9795268
20
102.793
30
0.33740612
70
32
0
SEQEND
8
0
0
POLYLINE
8
0
62
255
66
1
10
0
20
0
30
0
70
8
0
VERTEX
8
0
62
255
10
-3.1473915
20
102.82184
30
0.24952474
70
32
0
SEQEND
8
0
0
POLYLINE
8
0
62
255
66
1
10
0
20
0
30
0
70
8
0
VERTEX
8
0
62
255
10
-2.3565953
20
102.843
30
0.16303179
70
32
0
SEQEND
8
0
0
POLYLINE
8
0
62
255
66
1
10
0
20
0
30
0
70
8
0
VERTEX
8
0
62
255
10
-1.5728078
20
102.85798
30
0.077254832
70
32
0
SEQEND
8
0
0
POLYLINE
8
0
62
255
66
1
10
0
20
0
30
0
70
8
0
VERTEX
8
0
62
255
10
-0.77773964
20
102.86706
30
-0.0091229648
70
32
0
SEQEND
8
0
0
POLYLINE
8
0
62
255
66
1
10
0
20
0
30
0
70
8
0
VERTEX
8
0
62
255
10
0.021114297
20
102.87
30
-0.097469662
70
32
0
SEQEND
8
0
0
POLYLINE
8
0
62
255
66
1
10
0
20
0
30
0
70
8
0
VERTEX
8
0
62
255
10
0.81512087
20
102.86677
30
-0.18816959
70
32
0
SEQEND
8
0
0
POLYLINE
8
0
62
255
66
1
10
0
20
0
30
0
70
8
0
VERTEX
8
0
62
255
10
1.597606
20
102.85759
30
-0.28092581
70
32
0
SEQEND
8
0
0
POLYLINE
8
0
62
255
66
1
10
0
20
0
30
0
70
8
0
VERTEX
8
0
62
255
10
2.3888506
20
102.84226
30
-0.37888403
70
32
0
SEQEND
8
0
0
POLYLINE
8
0
62
255
66
1
10
0
20
0
30
0
70
8
0
VERTEX
8
0
62
255
10
3.2201348
20
102.81959
30
-0.4864574
70
32
0
SEQEND
8
0
0
POLYLINE
8
0
62
255
66
1
10
0
20
0
30
0
70
8
0
VERTEX
8
0
62
255
10
4.0084876
20
102.79187
30
-0.59151561
70
32
0
SEQEND
8
0
0
POLYLINE
8
0
62
255
66
1
10
0
20
0
30
0
70
8
0
VERTEX
8
0
62
255
10
4.6216564
20
102.76613
30
-0.67475721
70
32
0
SEQEND
8
0
0
POLYLINE
8
0
62
255
66
1
10
0
20
0
30
0
70
8
0
VERTEX
8
0
62
255
10
5.1536133
20
102.74083
30
-0.74941527
70
32
0
SEQEND
8
0
0
POLYLINE
8
0
62
255
66
1
10
0
20
0
30
0
70
8
0
VERTEX
8
0
62
255
10
5.7180962
20
102.71095
30
-0.83084444
70
32
0
SEQEND
8
0
0
POLYLINE
8
0
62
255
66
1
10
0
20
0
30
0
70
8
0
VERTEX
8
0
62
255
10
5.7240239
20
102.71062
30
-0.79116685
70
32
0
SEQEND
8
0
0
ENDSEC
0
EOF
