0
SECTION
2
HEADER
9
$ACADVER
1
AC1006
9
$INSUNITS
70
6
0
ENDSEC
0
SECTION
2
ENTITIES
0
POLYLINE
8
0
62
255
66
1
10
0
20
0
30
0
70
8
0
VERTEX
8
0
62
255
10
4.8630808
20
33.943402
30
-0.58883447
70
32
0
SEQEND
8
0
0
POLYLINE
8
0
62
255
66
1
10
0
20
0
30
0
70
8
0
VERTEX
8
0
62
255
10
4.2857231
20
34.021121
30
-0.090414026
70
32
0
SEQEND
8
0
0
POLYLINE
8
0
62
255
66
1
10
0
20
0
30
0
70
8
0
VERTEX
8
0
62
255
10
3.7374562
20
34.085708
30
0.37313906
70
32
0
SEQEND
8
0
0
POLYLINE
8
0
62
255
66
1
10
0
20
0
30
0
70
8
0
VERTEX
8
0
62
255
10
3.1041443
20
34.149208
30
0.88762515
70
32
0
SEQEND
8
0
0
POLYLINE
8
0
62
255
66
1
10
0
20
0
30
0
70
8
0
VERTEX
8
0
62
255
10
2.276948
20
34.214319
30
1.5366257
70
32
0
SEQEND
8
0
0
POLYLINE
8
0
62
255
66
1
10
0
20
0
30
0
70
8
0
VERTEX
8
0
62
255
10
1.3854561
20
34.262
30
2.2113286
70
32
0
SEQEND
8
0
0
POLYLINE
8
0
62
255
66
1
10
0
20
0
30
0
70
8
0
VERTEX
8
0
62
255
10
0.52444262
20
34.285989
30
2.8342822
70
32
0
SEQEND
8
0
0
POLYLINE
8
0
62
255
66
1
10
0
20
0
30
0
70
8
0
VERTEX
8
0
62
255
10
-0.33341143
20
34.288379
30
3.4311555
70
32
0
SEQEND
8
0
0
POLYLINE
8
0
62
255
66
1
10
0
20
0
30
0
70
8
0
VERTEX
8
0
62
255
10
-1.2113573
20
34.268597
30
4.0214882
70
32
0
SEQEND
8
0
0
POLYLINE
8
0
62
255
66
1
10
0
20
0
30
0
70
8
0
VERTEX
8
0
62
255
10
-2.1046026
20
34.225352
30
4.5970779
70
32
0
SEQEND
8
0
0
POLYLINE
8
0
62
255
66
1
10
0
20
0
30
0
70
8
0
VERTEX
8
0
62
255
10
-3.0038154
20
34.158179
30
5.1505815
70
32
0
SEQEND
8
0
0
POLYLINE
8
0
62
255
66
1
10
0
20
0
30
0
70
8
0
VERTEX
8
0
62
255
10
-3.8979181
20
34.067732
30
5.6795229
70
32
0
SEQEND
8
0
0
POLYLINE
8
0
62
255
66
1
10
0
20
0
30
0
70
8
0
VERTEX
8
0
62
255
10
-4.8050597
20
33.951664
30
6.1886554
70
32
0
SEQEND
8
0
0
POLYLINE
8
0
62
255
66
1
10
0
20
0
30
0
70
8
0
VERTEX
8
0
62
255
10
-5.7718852
20
33.800731
30
6.6887024
70
32
0
SEQEND
8
0
0
POLYLINE
8
0
62
255
66
1
10
0
20
0
30
0
70
8
0
VERTEX
8
0
62
255
10
-6.7265162
20
33.623773
30
7.143948
70
32
0
SEQEND
8
0
0
POLYLINE
8
0
62
255
66
1
10
0
20
0
30
0
70
8
0
VERTEX
8
0
62
255
10
-7.4959246
20
33.460652
30
7.4791056
70
32
0
SEQEND
8
0
0
POLYLINE
8
0
62
255
66
1
10
0
20
0
30
0
70
8
0
VERTEX
8
0
62
255
10
-8.1457986
20
33.308408
30
7.7273895
70
32
0
SEQEND
8
0
0
POLYLINE
8
0
62
255
66
1
10
0
20
0
30
0
70
8
0
VERTEX
8
0
62
255
10
-8.8361742
20
33.13195
30
7.9658062
70
32
0
SEQEND
8
0
0
POLYLINE
8
0
62
255
66
1
10
0
20
0
30
0
70
8
0
VERTEX
8
0
62
255
10
-9.5241464
20
32.940776
30
8.1742188
70
32
0
SEQEND
8
0
0
POLYLINE
8
0
62
255
66
1
10
0
20
0
30
0
70
8
0
VERTEX
8
0
62
255
10
-10.250493
20
32.722034
30
8.3498059
70
32
0
SEQEND
8
0
0
POLYLINE
8
0
62
255
66
1
10
0
20
0
30
0
70
8
0
VERTEX
8
0
62
255
10
-10.93362
20
32.500155
30
8.4784798
70
32
0
SEQEND
8
0
0
POLYLINE
8
0
62
255
66
1
10
0
20
0
30
0
70
8
0
VERTEX
8
0
62
255
10
-11.433606
20
32.327647
30
8.5419546
70
32
0
SEQEND
8
0
0
POLYLINE
8
0
62
255
66
1
10
0
20
0
30
0
70
8
0
VERTEX
8
0
62
255
10
-11.953203
20
32.139151
30
8.5677351
70
32
0
SEQEND
8
0
0
POLYLINE
8
0
62
255
66
1
10
0
20
0
30
0
70
8
0
VERTEX
8
0
62
255
10
-12.469772
20
31.942274
30
8.5389452
70
32
0
SEQEND
8
0
0
POLYLINE
8
0
62
255
66
1
10
0
20
0
30
0
70
8
0
VERTEX
8
0
62
255
10
-12.874225
20
31.781417
30
8.4118904
70
32
0
SEQEND
8
0
0
POLYLINE
8
0
62
255
66
1
10
0
20
0
30
0
70
8
0
VERTEX
8
0
62
255
10
-13.162156
20
31.663256
30
8.0139595
70
32
0
SEQEND
8
0
0
POLYLINE
8
0
62
255
66
1
10
0
20
0
30
0
70
8
0
VERTEX
8
0
62
255
10
-12.963129
20
31.745258
30
7.6379537
70
32
0
SEQEND
8
0
0
POLYLINE
8
0
62
255
66
1
10
0
20
0
30
0
70
8
0
VERTEX
8
0
62
255
10
-12.619423
20
31.883448
30
7.3293335
70
32
0
SEQEND
8
0
0
POLYLINE
8
0
62
255
66
1
10
0
20
0
30
0
70
8
0
VERTEX
8
0
62
255
10
-12.192171
20
32.04926
30
7.035261
70
32
0
SEQEND
8
0
0
POLYLINE
8
0
62
255
66
1
10
0
20
0
30
0
70
8
0
VERTEX
8
0
62
255
10
-11.774549
20
32.205032
30
6.7908837
70
32
0
SEQEND
8
0
0
POLYLINE
8
0
62
255
66
1
10
0
20
0
30
0
70
8
0
VERTEX
8
0
62
255
10
-11.191835
20
32.412142
30
6.484752
70
32
0
SEQEND
8
0
0
POLYLINE
8
0
62
255
66
1
10
0
20
0
30
0
70
8
0
VERTEX
8
0
62
255
10
-10.525547
20
32.634598
30
6.1594816
70
32
0
SEQEND
8
0
0
POLYLINE
8
0
62
255
66
1
10
0
20
0
30
0
70
8
0
VERTEX
8
0
62
255
10
-9.8792169
20
32.836035
30
5.8644098
70
32
0
SEQEND
8
0
0
POLYLINE
8
0
62
255
66
1
10
0
20
0
30
0
70
8
0
VERTEX
8
0
62
255
10
-9.214293
20
33.028789
30
5.5742832
70
32
0
SEQEND
8
0
0
POLYLINE
8
0
62
255
66
1
10
0
20
0
30
0
70
8
0
VERTEX
8
0
62
255
10
-8.5800875
20
33.19919
30
5.3001282
70
32
0
SEQEND
8
0
0
POLYLINE
8
0
62
255
66
1
10
0
20
0
30
0
70
8
0
VERTEX
8
0
62
255
10
-7.8361735
20
33.382608
30
4.9787498
70
32
0
SEQEND
8
0
0
POLYLINE
8
0
62
255
66
1
10
0
20
0
30
0
70
8
0
VERTEX
8
0
62
255
10
-6.8821877
20
33.592255
30
4.5681643
70
32
0
SEQEND
8
0
0
POLYLINE
8
0
62
255
66
1
10
0
20
0
30
0
70
8
0
VERTEX
8
0
62
255
10
-5.8836909
20
33.781449
30
4.137084
70
32
0
SEQEND
8
0
0
POLYLINE
8
0
62
255
66
1
10
0
20
0
30
0
70
8
0
VERTEX
8
0
62
255
10
-4.9313677
20
33.933548
30
3.7237379
70
32
0
SEQEND
8
0
0
POLYLINE
8
0
62
255
66
1
10
0
20
0
30
0
70
8
0
VERTEX
8
0
62
255
10
-3.9838254
20
34.057793
30
3.3140444
70
32
0
SEQEND
8
0
0
POLYLINE
8
0
62
255
66
1
10
0
20
0
30
0
70
8
0
VERTEX
8
0
62
255
10
-3.0193619
20
34.156808
30
2.8992894
70
32
0
SEQEND
8
0
0
POLYLINE
8
0
62
255
66
1
10
0
20
0
30
0
70
8
0
VERTEX
8
0
62
255
10
-2.048533
20
34.228754
30
2.480613
70
32
0
SEQEND
8
0
0
POLYLINE
8
0
62
255
66
1
10
0
20
0
30
0
70
8
0
VERTEX
8
0
62
255
10
-1.0830666
20
34.272891
30
2.0608328
70
32
0
SEQEND
8
0
0
POLYLINE
8
0
62
255
66
1
10
0
20
0
30
0
70
8
0
VERTEX
8
0
62
255
10
-0.13200167
20
34.289746
30
1.6428724
70
32
0
SEQEND
8
0
0
POLYLINE
8
0
62
255
66
1
10
0
20
0
30
0
70
8
0
VERTEX
8
0
62
255
10
0.82832821
20
34.279994
30
1.2149459
70
32
0
SEQEND
8
0
0
POLYLINE
8
0
62
255
66
1
10
0
20
0
30
0
70
8
0
VERTEX
8
0
62
255
10
1.8349444
20
34.240869
30
0.75943122
70
32
0
SEQEND
8
0
0
POLYLINE
8
0
62
255
66
1
10
0
20
0
30
0
70
8
0
VERTEX
8
0
62
255
10
2.7872028
20
34.176536
30
0.32353243
70
32
0
SEQEND
8
0
0
POLYLINE
8
0
62
255
66
1
10
0
20
0
30
0
70
8
0
VERTEX
8
0
62
255
10
3.5260163
20
34.108229
30
-0.01749305
70
32
0
SEQEND
8
0
0
POLYLINE
8
0
62
255
66
1
10
0
20
0
30
0
70
8
0
VERTEX
8
0
62
255
10
4.1648859
20
34.036125
30
-0.31648119
70
32
0
SEQEND
8
0
0
POLYLINE
8
0
62
255
66
1
10
0
20
0
30
0
70
8
0
VERTEX
8
0
62
255
10
4.8405614
20
33.946621
30
-0.63659138
70
32
0
SEQEND
8
0
0
POLYLINE
8
0
62
255
66
1
10
0
20
0
30
0
70
8
0
VERTEX
8
0
62
255
10
4.8630808
20
33.943402
30
-0.58883447
70
32
0
SEQEND
8
0
0
ENDSEC
0
EOF
